<?xml version="1.0" encoding="UTF-8"?>
<svg id="Capa_1" xmlns="http://www.w3.org/2000/svg" version="1.1" xmlns:xlink="http://www.w3.org/1999/xlink" viewBox="0 0 74.44 43.42">
  <!-- Generator: Adobe Illustrator 30.6.0, SVG Export Plug-In . SVG Version: 2.1.4 Build 109)  -->
  <defs>
    <style>
      .st0 {
        fill: #f1bd51;
      }

      .st1 {
        fill: #231f20;
      }

      .st2 {
        fill: #7a361d;
      }

      .st3 {
        fill: #fff;
      }

      .st4 {
        fill: none;
      }

      .st5 {
        clip-path: url(#clippath-1);
      }

      .st6 {
        fill: #80a7d8;
      }

      .st7 {
        clip-path: url(#clippath);
      }
    </style>
    <clipPath id="clippath">
      <rect class="st4" x="0" y="0" width="74.44" height="43.42"/>
    </clipPath>
    <clipPath id="clippath-1">
      <rect class="st4" x="0" y="0" width="74.44" height="43.42"/>
    </clipPath>
  </defs>
  <g class="st7">
    <rect class="st3" x="0" y="14.47" width="74.44" height="14.47"/>
    <rect class="st6" x="0" y="0" width="74.44" height="14.47"/>
    <rect class="st6" x="0" y="28.95" width="74.44" height="14.48"/>
    <g class="st5">
      <path class="st0" d="M36.92,21.71l.22,5.92s0,.11.08.11c.07,0,.07-.11.07-.11l.22-5.92h-.59Z"/>
      <path class="st2" d="M37.22,27.76c-.08,0-.09-.08-.09-.13l-.22-5.92h.04s.22,5.92.22,5.92c0,0,0,.09.06.09.05,0,.05-.09.05-.09l.23-5.92-.19,5.92s-.02.13-.09.13h0Z"/>
      <polygon class="st2" points="37.07 21.71 37.22 25.77 37.37 21.71 37.07 21.71"/>
      <path class="st0" d="M36.66,23.62c-.34.75-.05,1.35-.39,2-.34.65-.13,1.19-.15,1.48-.02.3-.27.38-.21.45.06.07.32-.07.42-.47.1-.4-.14-.62.27-1.42.41-.8.08-1.16.49-1.87l-.43-.18Z"/>
      <path class="st2" d="M35.98,27.6l-.08-.02s0-.08.04-.13c.06-.07.14-.16.15-.33,0-.08,0-.18-.02-.29-.04-.31-.08-.72.17-1.2.17-.32.18-.63.19-.96.01-.33.03-.67.2-1.04h.03c-.17.38-.18.72-.19,1.05-.01.33-.02.65-.2.97-.25.47-.2.88-.17,1.18.01.11.02.21.02.29-.01.18-.1.28-.17.35-.04.05-.06.07-.04.09.15-.02.31-.16.38-.46.03-.13.03-.25.02-.37-.01-.25-.02-.53.25-1.06.2-.39.22-.68.24-.96.02-.28.04-.55.25-.91-.17.37-.19.64-.21.92-.02.28-.04.57-.25.97-.27.52-.26.8-.25,1.04,0,.12.01.24-.02.38-.07.29-.24.46-.36.49h-.01Z"/>
      <path class="st2" d="M36.76,23.81c-.26.74.01,1.24-.34,1.86.39-.45.13-1.03.48-1.79l-.14-.07Z"/>
      <path class="st0" d="M37.52,21.71l-.22-5.92s0-.11-.07-.11c-.08,0-.08.11-.08.11l-.22,5.92h.59Z"/>
      <path class="st2" d="M37.5,21.71l-.23-5.92s0-.09-.05-.09c-.06,0-.06.09-.06.09l-.22,5.92.19-5.92s.02-.13.09-.13c.07,0,.09.08.09.13l.23,5.92h-.04Z"/>
      <polygon class="st2" points="37.37 21.71 37.22 17.65 37.07 21.71 37.37 21.71"/>
      <path class="st0" d="M37.78,19.8c.34-.74.05-1.35.38-2,.34-.65.13-1.18.15-1.48.02-.3.27-.38.2-.45-.06-.07-.32.07-.42.46-.1.4.14.63-.27,1.42-.41.8-.08,1.16-.49,1.87l.44.18Z"/>
      <path class="st2" d="M37.8,19.8l-.03-.02c.17-.37.18-.7.19-1.03.01-.33.02-.65.19-.98.25-.47.2-.88.17-1.18-.01-.11-.02-.22-.02-.3.01-.18.11-.28.17-.35.04-.05.06-.07.04-.08-.14.01-.31.15-.39.46-.03.13-.03.25-.02.37.01.25.02.53-.25,1.06-.2.39-.23.68-.25.96-.02.28-.04.55-.25.91.17-.37.19-.64.21-.92.02-.28.04-.57.25-.97.27-.52.25-.8.25-1.04,0-.12-.01-.24.02-.38.08-.32.26-.47.36-.49h0s.08.02.08.02c.04.04,0,.08-.04.13-.06.07-.14.16-.16.33,0,.08,0,.18.02.29.03.31.08.72-.17,1.2-.17.32-.18.63-.19.96-.01.33-.02.67-.19,1.04h0Z"/>
      <path class="st2" d="M37.69,19.61c.27-.74-.02-1.23.34-1.86-.39.45-.13,1.03-.48,1.8l.14.07Z"/>
      <path class="st0" d="M37.22,21.41l-5.92.22s-.11,0-.11.07.11.08.11.08l5.92.22v-.59Z"/>
      <path class="st2" d="M37.22,21.99l-5.92-.19s-.13-.02-.13-.09.09-.09.13-.09l5.92-.22v.04s-5.92.22-5.92.22c0,0-.09,0-.09.06s.09.06.09.06l5.92.22h0Z"/>
      <polygon class="st2" points="37.22 21.56 33.16 21.71 37.22 21.86 37.22 21.56"/>
      <path class="st0" d="M35.31,21.15c-.75-.34-1.35-.05-2-.39-.65-.34-1.19-.13-1.49-.15-.3-.02-.38-.27-.45-.21-.07.06.07.32.46.42.4.1.63-.14,1.42.27.8.41,1.16.08,1.87.49l.18-.44Z"/>
      <path class="st2" d="M35.13,21.57c-.37-.17-.64-.19-.92-.21-.28-.02-.57-.04-.97-.25-.53-.27-.8-.26-1.04-.25-.12,0-.24.01-.38-.02-.29-.07-.46-.24-.49-.36h0s.02-.09.02-.09c.04-.04.09,0,.13.04.07.06.16.14.33.16.08,0,.18,0,.29-.02.3-.03.73-.08,1.21.17.32.17.63.18.96.19.33.01.67.02,1.04.2l-.02.03c-.37-.17-.7-.18-1.03-.19-.33-.01-.65-.02-.98-.2-.47-.24-.88-.2-1.18-.17-.11.01-.21.02-.29.02-.18-.01-.28-.11-.35-.17-.05-.04-.07-.06-.09-.04.02.15.16.31.46.39.13.03.25.03.37.02.25-.01.53-.02,1.06.25.39.2.68.22.96.24.28.02.55.04.91.25h0Z"/>
      <path class="st2" d="M35.12,21.25c-.74-.27-1.23.01-1.86-.34.45.39,1.03.13,1.79.48l.06-.14Z"/>
      <path class="st0" d="M37.22,22.01l5.92-.22s.11,0,.11-.08-.11-.07-.11-.07l-5.92-.22v.59Z"/>
      <path class="st2" d="M37.22,22.03v-.04s5.92-.22,5.92-.22c0,0,.09,0,.09-.06s-.09-.06-.09-.06l-5.92-.22,5.92.19s.13.02.13.09-.08.09-.13.09l-5.92.22h0Z"/>
      <polygon class="st2" points="37.22 21.86 41.28 21.71 37.22 21.56 37.22 21.86"/>
      <path class="st0" d="M39.14,22.27c.75.34,1.35.05,2,.39.65.34,1.18.13,1.48.15.3.02.38.27.45.2.07-.06-.07-.32-.46-.42-.39-.1-.62.14-1.42-.27-.8-.41-1.16-.08-1.87-.49l-.18.44Z"/>
      <path class="st2" d="M43.05,23.04s-.06-.03-.1-.06c-.06-.06-.16-.14-.33-.16-.08,0-.18,0-.29.02-.31.03-.72.08-1.2-.17-.32-.17-.63-.18-.96-.19-.33-.01-.67-.02-1.04-.2l.02-.03c.37.17.7.18,1.03.19.33.01.65.02.98.2.47.25.88.2,1.18.17.11-.01.21-.02.3-.02.18.01.28.1.35.16.05.05.07.05.08.04-.01-.15-.16-.31-.46-.39-.13-.03-.24-.03-.37-.02-.25.01-.53.02-1.06-.25-.39-.2-.68-.22-.96-.24-.28-.02-.55-.04-.91-.25.37.17.64.19.92.21s.57.04.97.25c.52.27.79.25,1.04.24.12,0,.24-.01.38.02.32.08.47.26.49.36h0s-.02.09-.02.09c-.01.01-.02.02-.04.02h0Z"/>
      <path class="st2" d="M39.32,22.17c.74.27,1.23-.01,1.86.34-.45-.39-1.03-.13-1.8-.48l-.07.14Z"/>
      <path class="st0" d="M37.01,21.5l-4.03,4.34s-.08.08-.03.13c.05.05.13-.03.13-.03l4.34-4.03-.42-.42Z"/>
      <path class="st2" d="M33,26.01c-.11-.07-.06-.15-.03-.18l4.03-4.34.03.02-4.03,4.34s-.06.07-.03.11c.04.04.11-.03.11-.03l4.34-4.03-4.32,4.05s-.05.05-.1.05h0Z"/>
      <polygon class="st2" points="37.11 21.61 34.35 24.58 37.33 21.82 37.11 21.61"/>
      <path class="st0" d="M35.47,22.67c-.77.29-.99.92-1.69,1.14-.7.22-.93.75-1.16.94-.23.19-.46.08-.46.17s.27.18.62-.03c.35-.21.34-.54,1.2-.81.85-.27.88-.76,1.67-.97l-.18-.44Z"/>
      <path class="st2" d="M32.37,25.04c-.07,0-.13-.01-.17-.04l-.05-.08c0-.05.06-.06.13-.06.09,0,.22-.02.34-.12.06-.05.12-.13.19-.21.19-.24.46-.57.98-.73.35-.11.58-.32.82-.54.24-.22.49-.45.87-.6v.03c-.37.14-.61.37-.85.59-.24.23-.47.44-.83.55-.51.16-.77.48-.96.72-.07.09-.13.16-.19.22-.14.12-.27.13-.37.13-.06,0-.09,0-.09.03.12.09.33.11.6-.05.12-.07.19-.15.28-.24.17-.18.35-.39.92-.57.42-.13.64-.32.85-.5.22-.19.42-.36.83-.47-.39.14-.59.31-.8.5-.21.18-.43.37-.86.51-.56.18-.74.38-.91.56-.08.09-.16.18-.28.25-.16.1-.31.13-.43.13h0Z"/>
      <path class="st2" d="M35.41,22.87c-.71.34-.86.88-1.56,1.08.6-.04.83-.64,1.61-.93l-.05-.15Z"/>
      <path class="st0" d="M37.43,21.92l4.03-4.34s.08-.08.03-.13c-.05-.05-.13.02-.13.02l-4.34,4.03.42.42Z"/>
      <path class="st2" d="M37.44,21.93l-.03-.02,4.03-4.34s.06-.07.03-.11c-.04-.04-.11.02-.11.03l-4.35,4.03,4.32-4.06s.1-.08.16-.02c.05.05,0,.13-.03.16l-4.03,4.34h0Z"/>
      <polygon class="st2" points="37.33 21.82 40.09 18.84 37.11 21.61 37.33 21.82"/>
      <path class="st0" d="M38.97,20.75c.77-.29.99-.92,1.69-1.14.7-.22.93-.75,1.16-.94.23-.19.46-.08.46-.17,0-.09-.27-.18-.62.04-.35.21-.34.54-1.2.81-.85.27-.88.76-1.67.97l.18.44Z"/>
      <path class="st2" d="M38.98,20.77v-.03c.37-.14.61-.37.85-.59.25-.23.48-.44.83-.55.5-.16.76-.48.95-.72.07-.09.14-.17.2-.22.14-.12.27-.13.37-.13.07,0,.09,0,.09-.03-.12-.09-.33-.11-.6.05-.12.07-.19.15-.28.24-.17.18-.36.39-.92.57-.42.14-.64.32-.85.5-.22.19-.42.36-.82.47.38-.14.59-.31.8-.5s.43-.37.86-.51c.56-.18.75-.38.91-.56.09-.09.17-.18.29-.25.26-.16.49-.16.6-.1l.05.08c0,.06-.06.06-.13.06-.09,0-.21.01-.34.12-.06.05-.12.13-.19.22-.19.24-.46.57-.97.73-.35.11-.58.32-.82.54-.24.22-.49.45-.87.6h0Z"/>
      <path class="st2" d="M39.04,20.55c.71-.34.87-.88,1.56-1.07-.6.04-.83.63-1.61.93l.05.15Z"/>
      <path class="st0" d="M37.43,21.5l-4.34-4.03s-.08-.08-.13-.02c-.05.05.03.13.03.13l4.03,4.34.42-.42Z"/>
      <path class="st2" d="M37.02,21.91l-4.05-4.32s-.08-.1-.03-.16c.05-.05.13,0,.16.02l4.34,4.03-.02.03-4.34-4.03s-.07-.06-.11-.02c-.04.04.03.1.03.1l4.03,4.35h0Z"/>
      <polygon class="st2" points="37.33 21.61 34.35 18.84 37.11 21.82 37.33 21.61"/>
      <path class="st0" d="M36.26,19.96c-.29-.77-.92-.99-1.14-1.69-.22-.7-.75-.93-.94-1.16-.19-.23-.08-.46-.17-.46-.09,0-.18.27.03.62.21.35.54.34.81,1.2.27.85.76.88.97,1.67l.44-.18Z"/>
      <path class="st2" d="M35.84,20.14c-.14-.39-.31-.59-.5-.8-.18-.21-.37-.43-.51-.86-.18-.56-.38-.74-.56-.91-.09-.08-.18-.16-.25-.29-.17-.28-.15-.51-.09-.6l.08-.05c.05,0,.06.06.06.13,0,.09.01.22.12.34.05.06.13.12.22.19.24.19.57.45.73.97.11.35.32.57.54.81.22.24.46.49.6.88h-.04c-.14-.37-.37-.61-.59-.85-.23-.24-.44-.47-.55-.83-.16-.5-.48-.76-.72-.95-.09-.07-.17-.14-.22-.2-.12-.14-.13-.27-.13-.37,0-.07,0-.09-.03-.09-.09.11-.11.33.05.6.07.12.15.19.25.28.18.17.39.35.57.92.13.42.32.64.5.85.19.22.36.42.47.82h0Z"/>
      <path class="st2" d="M36.06,19.9c-.34-.71-.88-.86-1.08-1.56.04.6.64.83.93,1.61l.14-.05Z"/>
      <path class="st0" d="M37.01,21.92l4.34,4.03s.08.08.13.03c.05-.05-.03-.13-.03-.13l-4.03-4.34-.42.42Z"/>
      <path class="st2" d="M41.44,25.99c-.07,0-.1-.03-.1-.03l-4.34-4.02.02-.03,4.35,4.03s.06.07.11.03c.04-.04-.03-.1-.03-.1l-4.03-4.34,4.05,4.32s.08.11.03.16c-.02,0-.04,0-.06,0h0Z"/>
      <polygon class="st2" points="37.11 21.82 40.09 24.58 37.33 21.61 37.11 21.82"/>
      <path class="st0" d="M38.18,23.46c.29.77.92.99,1.14,1.69.22.7.75.93.94,1.15.19.23.08.46.17.46.09,0,.18-.27-.03-.62-.21-.35-.54-.35-.81-1.2-.28-.85-.76-.88-.97-1.67l-.44.18Z"/>
      <path class="st2" d="M40.43,26.79c-.05,0-.06-.06-.06-.12,0-.09-.01-.22-.12-.35-.05-.06-.13-.12-.21-.19-.24-.19-.57-.45-.73-.97-.11-.35-.32-.58-.54-.82-.22-.24-.45-.49-.6-.87h.04c.14.36.37.61.59.85.23.24.44.48.55.83.16.51.48.77.72.95.09.07.17.13.22.19.12.14.13.28.13.37,0,.07,0,.09.03.09.09-.11.11-.33-.05-.59-.07-.12-.15-.19-.25-.28-.18-.17-.39-.36-.57-.92-.14-.42-.32-.64-.5-.85-.19-.22-.36-.42-.47-.82.14.39.31.59.5.8.18.21.37.43.51.86.18.56.38.74.56.91.09.08.18.16.25.29.16.26.16.49.09.6l-.08.05h0Z"/>
      <path class="st2" d="M38.38,23.52c.34.71.88.86,1.08,1.56-.04-.6-.64-.83-.93-1.61l-.14.05Z"/>
      <path class="st0" d="M36.95,21.6l-2.06,5.55s-.04.1.03.13c.07.03.11-.08.11-.08l2.47-5.38-.55-.23Z"/>
      <path class="st2" d="M34.97,27.3c-.13-.03-.11-.11-.1-.16l2.06-5.55h.04s-2.06,5.57-2.06,5.57c0,0-.04.09.02.11l.09-.07,2.47-5.38-2.44,5.4s-.03.07-.08.08h0Z"/>
      <polygon class="st2" points="37.09 21.65 35.67 25.46 37.36 21.77 37.09 21.65"/>
      <path class="st0" d="M35.97,23.26c-.6.56-.56,1.23-1.13,1.7-.56.47-.57,1.05-.71,1.32-.13.27-.39.25-.36.34.03.09.32.06.56-.27.25-.33.12-.63.8-1.21.68-.58.52-1.04,1.17-1.54l-.33-.33Z"/>
      <path class="st2" d="M33.87,26.68s-.02,0-.03,0l-.08-.05c-.02-.05.03-.08.09-.11.08-.04.19-.1.27-.25.04-.07.06-.17.1-.28.08-.29.2-.7.62-1.04.28-.23.41-.52.55-.81.14-.3.28-.61.58-.89l.02.03c-.29.28-.44.58-.57.87-.14.3-.27.59-.56.83-.41.34-.52.74-.61,1.03-.03.11-.06.21-.1.28-.08.16-.2.22-.29.26-.06.03-.08.04-.07.06.14.04.35-.03.53-.27.08-.11.12-.22.16-.33.09-.23.18-.49.63-.88.34-.29.47-.54.59-.79.13-.25.25-.49.58-.75-.3.28-.42.52-.54.77-.13.25-.26.51-.6.8-.45.38-.54.64-.63.86-.04.12-.08.23-.17.34-.17.22-.36.32-.48.32h0Z"/>
      <path class="st2" d="M35.99,23.47c-.53.58-.46,1.15-1.03,1.59.54-.26.52-.9,1.13-1.48l-.1-.11Z"/>
      <path class="st0" d="M37.49,21.82l2.06-5.56s.04-.1-.03-.13c-.07-.03-.11.07-.11.07l-2.47,5.38.55.23Z"/>
      <path class="st2" d="M37.51,21.83h-.03s2.06-5.57,2.06-5.57c0,0,.04-.08-.02-.1l-.09.06-2.47,5.38,2.44-5.4s.03-.06.07-.08l.11.04s0,.11,0,.11l-2.06,5.55h0Z"/>
      <polygon class="st2" points="37.36 21.77 38.77 17.96 37.09 21.65 37.36 21.77"/>
      <path class="st0" d="M38.47,20.16c.6-.56.56-1.23,1.13-1.7.57-.47.57-1.05.71-1.31.13-.27.39-.25.36-.34-.03-.09-.32-.06-.56.27-.25.33-.11.63-.8,1.21-.68.58-.52,1.04-1.17,1.54l.33.34Z"/>
      <path class="st2" d="M38.48,20.17l-.02-.03c.3-.28.43-.58.57-.87.14-.3.27-.59.56-.83.41-.34.52-.74.6-1.03.03-.11.06-.21.1-.28.08-.16.21-.22.29-.26.06-.03.08-.04.07-.06-.14-.04-.35.03-.53.27-.08.11-.12.22-.16.33-.09.23-.18.49-.63.88-.34.29-.47.54-.59.79-.13.25-.25.5-.58.75.3-.28.42-.51.55-.76.13-.25.26-.51.6-.8.45-.38.54-.64.62-.87.04-.12.08-.23.17-.34.18-.24.39-.34.51-.32l.08.05c.02.05-.03.08-.09.11-.08.04-.2.1-.27.25-.04.07-.07.17-.1.28-.08.3-.2.7-.62,1.05-.28.23-.41.52-.54.81-.14.3-.28.61-.58.89h0Z"/>
      <path class="st2" d="M38.46,19.95c.53-.58.46-1.15,1.03-1.59-.54.27-.52.91-1.13,1.48l.1.11Z"/>
      <path class="st0" d="M37.33,21.44l-5.55-2.06s-.1-.04-.13.02c-.03.07.07.11.07.11l5.38,2.47.23-.55Z"/>
      <path class="st2" d="M37.12,21.97l-5.4-2.44s-.11-.07-.08-.14c.03-.07.12-.05.16-.03l5.55,2.06v.03s-5.56-2.06-5.56-2.06c0,0-.09-.04-.11.02-.02.05.06.09.06.09l5.39,2.47h0Z"/>
      <polygon class="st2" points="37.28 21.57 33.47 20.15 37.17 21.85 37.28 21.57"/>
      <path class="st0" d="M35.67,20.46c-.56-.6-1.23-.56-1.71-1.13-.47-.56-1.04-.57-1.31-.71-.27-.13-.25-.39-.34-.36-.09.03-.06.32.27.56.33.24.63.11,1.21.79.58.68,1.04.52,1.54,1.17l.34-.33Z"/>
      <path class="st2" d="M35.35,20.78c-.28-.3-.52-.42-.77-.55-.25-.13-.51-.26-.8-.6-.38-.45-.64-.54-.87-.62-.12-.04-.23-.08-.34-.17-.25-.18-.34-.4-.32-.52l.05-.08s.08.03.11.09c.04.08.1.2.24.27.07.03.16.06.27.09.3.08.7.2,1.05.62.23.28.52.41.81.54.3.14.61.28.89.58l-.03.02c-.28-.3-.58-.44-.88-.57-.3-.14-.59-.27-.83-.55-.34-.41-.74-.53-1.03-.61-.11-.03-.2-.06-.27-.09-.16-.08-.22-.21-.26-.29-.03-.06-.04-.08-.06-.07-.04.14.03.35.28.53.11.08.22.12.33.16.23.08.49.18.88.63.29.34.54.46.79.59.25.13.5.25.75.58h0Z"/>
      <path class="st2" d="M35.46,20.48c-.58-.53-1.15-.46-1.59-1.03.26.54.9.52,1.48,1.13l.11-.1Z"/>
      <path class="st0" d="M37.11,21.98l5.55,2.06s.1.04.13-.03c.03-.07-.08-.11-.08-.11l-5.38-2.47-.23.55Z"/>
      <path class="st2" d="M42.72,24.07s-.05,0-.07-.01l-5.55-2.06v-.03s5.56,2.06,5.56,2.06c0,0,.09.03.11-.02.02-.05-.06-.09-.07-.09l-5.39-2.47,5.4,2.44s.11.07.08.13c-.02.04-.05.05-.09.05h0Z"/>
      <polygon class="st2" points="37.17 21.85 40.97 23.27 37.28 21.57 37.17 21.85"/>
      <path class="st0" d="M38.77,22.96c.56.6,1.23.56,1.71,1.13.47.56,1.05.57,1.31.71.27.14.25.39.34.36.09-.03.06-.32-.27-.56-.33-.24-.63-.11-1.21-.79-.58-.68-1.04-.52-1.54-1.17l-.34.33Z"/>
      <path class="st2" d="M42.11,25.17s-.06-.04-.09-.1c-.04-.08-.1-.19-.25-.27-.07-.04-.16-.06-.27-.09-.3-.08-.7-.2-1.05-.62-.23-.28-.52-.41-.82-.54-.3-.14-.61-.28-.89-.58l.03-.02c.28.3.58.44.88.57.3.14.59.27.83.55.34.41.74.52,1.03.61.11.03.21.06.28.1.16.08.22.21.26.29.03.06.04.08.06.07.04-.14-.03-.34-.28-.53-.11-.08-.22-.12-.33-.16-.23-.08-.5-.18-.88-.63-.29-.34-.54-.47-.79-.59-.26-.13-.5-.25-.75-.58.28.3.52.42.77.55.25.13.51.26.8.6.38.45.64.54.87.62.12.04.23.08.34.17.26.19.34.42.32.52l-.05.07s-.01,0-.02,0h0Z"/>
      <path class="st2" d="M38.98,22.94c.58.53,1.15.46,1.59,1.03-.26-.54-.9-.52-1.47-1.13l-.11.1Z"/>
      <path class="st0" d="M37.11,21.44l-5.38,2.47s-.1.04-.07.11c.03.07.13.03.13.03l5.55-2.06-.23-.55Z"/>
      <path class="st2" d="M31.72,24.07s-.07-.01-.09-.05c-.03-.07.04-.12.08-.13l5.38-2.47.02.03-5.38,2.47s-.09.04-.07.09c.02.05.11.02.11.02l5.55-2.06-5.54,2.09s-.04.01-.07.01h0Z"/>
      <polygon class="st2" points="37.17 21.57 33.47 23.27 37.28 21.85 37.17 21.57"/>
      <path class="st0" d="M35.24,21.93c-.82-.03-1.27.47-2,.41-.73-.07-1.14.34-1.43.43-.29.09-.45-.1-.49-.02-.04.08.18.27.59.21.4-.06.52-.37,1.41-.29.89.07,1.1-.37,1.92-.26v-.47Z"/>
      <path class="st2" d="M31.75,22.98c-.23,0-.39-.09-.43-.15l-.02-.09s.08-.03.14,0c.08.03.21.07.37.02.08-.02.16-.07.26-.13.27-.15.63-.35,1.18-.3.36.04.65-.07.96-.19.31-.11.62-.23,1.04-.22v.04c-.4-.01-.72.1-1.02.21-.31.12-.61.22-.98.19-.52-.05-.89.15-1.15.3-.1.06-.19.1-.27.13-.17.06-.3.01-.39-.02-.07-.02-.09-.03-.09,0,.07.13.26.23.57.18.13-.02.24-.07.35-.12.22-.1.47-.22,1.07-.17.44.04.71-.05.98-.14.27-.09.53-.17.94-.12-.43-.02-.66.07-.93.15-.27.09-.54.18-.99.14-.58-.05-.83.07-1.05.17-.11.05-.22.1-.36.12-.06,0-.11.01-.16.01h0Z"/>
      <path class="st2" d="M35.1,22.08c-.79.04-1.13.49-1.85.4.57.19,1-.27,1.84-.24v-.15Z"/>
      <path class="st0" d="M37.33,21.98l5.38-2.47s.1-.04.08-.11c-.03-.07-.13-.02-.13-.02l-5.55,2.06.23.55Z"/>
      <path class="st2" d="M37.34,22l-.02-.03,5.39-2.47s.09-.04.06-.09c-.02-.05-.11-.02-.11-.01l-5.55,2.06,5.54-2.09s.12-.03.16.03c.03.07-.04.12-.09.14l-5.38,2.47h0Z"/>
      <polygon class="st2" points="37.28 21.85 40.97 20.15 37.17 21.57 37.28 21.85"/>
      <path class="st0" d="M39.2,21.49c.82.03,1.27-.47,2-.41.73.06,1.15-.34,1.43-.43.28-.09.46.1.49.02.04-.08-.18-.27-.59-.21-.41.06-.52.37-1.42.3-.89-.07-1.1.36-1.92.26v.47Z"/>
      <path class="st2" d="M39.27,21.51s-.05,0-.07,0v-.04c.41.01.72-.1,1.02-.21.31-.12.62-.22.98-.19.53.05.89-.15,1.16-.3.1-.06.19-.1.26-.13.17-.06.3-.01.39.02.07.02.08.03.09,0-.07-.13-.26-.23-.57-.18-.13.02-.24.07-.35.12-.22.1-.48.22-1.07.18-.44-.04-.71.05-.97.14-.27.09-.53.17-.94.12.41.02.67-.07.93-.15.26-.09.54-.17.99-.14.58.05.83-.07,1.05-.17.11-.05.22-.1.36-.12.3-.05.52.04.59.14l.02.09s-.08.03-.14,0c-.08-.03-.21-.07-.37-.02-.08.02-.16.07-.26.13-.27.15-.64.35-1.18.31-.36-.03-.65.07-.96.19-.29.11-.59.22-.96.22h0Z"/>
      <path class="st2" d="M39.34,21.34c.79-.04,1.13-.48,1.85-.4-.57-.19-1.01.27-1.84.25v.15Z"/>
      <path class="st0" d="M37.49,21.6l-2.47-5.38s-.04-.1-.11-.07c-.07.03-.03.13-.03.13l2.06,5.56.55-.23Z"/>
      <path class="st2" d="M36.96,21.82l-2.1-5.54s-.03-.06,0-.11l.11-.04s.07.08.07.08l2.47,5.38-.03.02-2.52-5.47-.04.02-.02.11,2.06,5.56h0Z"/>
      <polygon class="st2" points="37.36 21.65 35.67 17.96 37.09 21.77 37.36 21.65"/>
      <path class="st0" d="M37.01,19.73c.03-.82-.48-1.27-.41-2,.07-.73-.34-1.14-.43-1.43-.09-.28.1-.46.02-.5-.08-.04-.27.18-.21.59.06.41.37.52.29,1.42-.07.89.37,1.1.26,1.91h.47Z"/>
      <path class="st2" d="M37.03,19.73h-.04c.01-.41-.1-.72-.22-1.03-.12-.31-.23-.61-.19-.98.05-.53-.15-.89-.3-1.16-.05-.1-.1-.19-.13-.27-.06-.17-.01-.3.02-.39.02-.06.03-.09,0-.1-.13.07-.23.27-.18.57.02.14.07.24.12.35.1.22.22.48.17,1.07-.04.44.05.71.14.98.09.27.17.53.12.94.02-.41-.07-.66-.15-.93-.09-.27-.18-.54-.14-.99.05-.59-.07-.83-.17-1.05-.05-.11-.1-.22-.12-.36-.05-.3.04-.51.14-.59l.09-.02s.03.08,0,.14c-.03.08-.07.21-.02.37.02.08.07.16.13.26.15.27.35.64.3,1.18-.03.36.08.65.19.96.11.31.23.63.22,1.04h0Z"/>
      <path class="st2" d="M36.84,19.59c-.04-.79-.48-1.13-.39-1.85-.2.57.27,1.01.24,1.84h.15Z"/>
      <path class="st0" d="M36.95,21.82l2.47,5.38s.04.1.11.08c.07-.03.03-.13.03-.13l-2.06-5.55-.55.23Z"/>
      <path class="st2" d="M39.54,27.3c-.11-.02-.13-.08-.14-.08l-2.47-5.38h.03s2.47,5.37,2.47,5.37c0,0,.04.09.09.07.05-.02.02-.11.02-.11l-2.06-5.55,2.1,5.54s.03.13-.04.16h0Z"/>
      <polygon class="st2" points="37.09 21.77 38.77 25.46 37.36 21.65 37.09 21.77"/>
      <path class="st0" d="M37.43,23.69c-.03.82.47,1.27.41,2-.07.73.33,1.15.43,1.43.09.28-.1.45-.02.49.08.04.27-.19.21-.59-.06-.4-.37-.52-.29-1.42.07-.89-.36-1.1-.26-1.92h-.47Z"/>
      <path class="st2" d="M38.25,27.63s-.03-.08,0-.14c.03-.08.07-.2.02-.36-.02-.08-.07-.16-.13-.26-.15-.27-.35-.64-.3-1.18.03-.36-.08-.65-.19-.96-.12-.31-.23-.63-.22-1.04h.04c-.02.41.1.72.22,1.03.12.31.23.61.19.97-.05.53.15.89.3,1.16.05.1.1.19.13.27.06.17.01.3-.02.39-.02.06-.03.09,0,.1.13-.07.23-.26.18-.57-.02-.13-.07-.24-.12-.35-.11-.22-.22-.48-.17-1.07.04-.44-.05-.71-.14-.98-.09-.27-.17-.53-.12-.94-.02.41.07.66.16.93.09.27.18.54.14.99-.05.59.07.83.17,1.05.05.11.1.22.12.36.04.3-.04.52-.14.59l-.09.02h0Z"/>
      <path class="st2" d="M37.6,23.83c.04.79.48,1.14.4,1.85.19-.57-.27-1.01-.25-1.84h-.15Z"/>
      <path class="st0" d="M37.22,19.3c1.33,0,2.41,1.08,2.41,2.41s-1.08,2.41-2.41,2.41-2.42-1.08-2.42-2.41,1.08-2.41,2.42-2.41h0Z"/>
      <path class="st2" d="M37.22,24.14c-1.34,0-2.43-1.09-2.43-2.43s1.09-2.43,2.43-2.43,2.43,1.09,2.43,2.43-1.09,2.43-2.43,2.43h0ZM37.22,19.32c-1.32,0-2.4,1.07-2.4,2.39s1.07,2.4,2.4,2.4,2.39-1.07,2.39-2.4-1.07-2.39-2.39-2.39h0Z"/>
      <path class="st2" d="M38.74,21.19c-.43-.37-.96-.43-1.26-.15-.21.29-.2.63.06.98-.02,0-.06.02-.07.04-.19-.35-.22-.72-.09-1.06.41-.33.97-.37,1.37.19h0Z"/>
      <path class="st2" d="M38.08,21.08c-.24,0-.3.06-.41.15-.11.09-.16.07-.19.09-.02.02,0,.07.04.06.04-.02.11-.06.22-.15.11-.09.22-.09.33-.09.33,0,.52.28.56.26.04-.02-.19-.32-.56-.32h0Z"/>
      <path class="st2" d="M38.5,21.39c-.24-.26-.69-.28-.87.02h.08c.19-.3.63-.17.67-.04v.04l.13-.02Z"/>
      <path class="st2" d="M38.04,21.21c.09,0,.17.08.17.17s-.08.17-.17.17-.16-.08-.16-.17.08-.17.16-.17h0Z"/>
      <path class="st2" d="M37.63,21.41c.19.17.59.19.87-.02l-.13-.02c-.19.2-.48.19-.67.04v-.04l-.08.04Z"/>
      <path class="st2" d="M38.52,21.49c-.32.24-.63.22-.82.11-.18-.11-.18-.15-.15-.15.04,0,.07.03.22.11.15.07.37.07.74-.08h0Z"/>
      <path class="st2" d="M37.61,22.04c.06.02.09.08.07.14-.02.06-.08.09-.14.07-.04-.01-.07-.05-.07-.1-.02.04-.09.15-.24.15h-.04l.04.06s.15,0,.22-.06c.05.08.15.09.23.04.07-.05.09-.16.04-.23-.03-.03-.07-.06-.11-.07h0Z"/>
      <path class="st2" d="M37.83,22.82c-.17-.11-.24-.28-.42-.28-.04,0-.11.02-.19.06h-.04l.04.06c.07,0,.19-.09.31-.02.13.08.2.15.3.19h0Z"/>
      <path class="st2" d="M37.78,22.82c-.37-.11-.45-.04-.56-.04h-.04l.04.07c.15,0,.22-.11.56-.04h0Z"/>
      <path class="st2" d="M37.83,22.82c-.41-.04-.28.21-.61.21h-.04l.04.06c.41,0,.22-.22.61-.26h0Z"/>
      <path class="st2" d="M37.55,23.42c0-.18-.15-.33-.33-.33s-.34.15-.34.33c.04-.18.23-.3.41-.25.13.03.23.13.25.25h0Z"/>
      <path class="st2" d="M35.7,21.19c.43-.37.96-.43,1.26-.15.22.29.19.63-.06.98.02,0,.06.02.08.04.19-.35.22-.72.09-1.06-.41-.33-.97-.37-1.37.19h0Z"/>
      <path class="st2" d="M36.37,21.08c.24,0,.3.06.41.15.11.09.17.07.19.09.02.02,0,.07-.04.06-.04-.02-.11-.06-.22-.15-.11-.09-.23-.09-.34-.09-.33,0-.52.28-.56.26-.04-.02.19-.32.56-.32h0Z"/>
      <path class="st2" d="M35.94,21.39c.24-.26.69-.28.87.02h-.07c-.19-.3-.63-.17-.67-.04v.04l-.13-.02Z"/>
      <path class="st2" d="M36.41,21.21c-.09,0-.17.08-.17.17s.07.17.17.17.16-.08.16-.17-.07-.17-.16-.17h0Z"/>
      <path class="st2" d="M36.81,21.41c-.18.17-.59.19-.87-.02l.13-.02c.18.2.48.19.67.04v-.04l.07.04Z"/>
      <path class="st2" d="M35.92,21.49c.32.24.63.22.82.11.19-.11.19-.15.15-.15-.04,0-.08.03-.22.11-.15.07-.37.07-.74-.08h0Z"/>
      <path class="st2" d="M36.83,22.04c-.06.02-.09.08-.07.14.02.06.08.09.14.07.04-.01.07-.05.08-.1.02.04.09.15.24.15h.04l-.04.06s-.15,0-.23-.06c-.05.08-.16.09-.23.04-.07-.05-.09-.16-.04-.23.03-.03.07-.06.11-.07h0Z"/>
      <path class="st2" d="M36.61,22.82c.17-.11.24-.28.42-.28.04,0,.11.02.19.06h.04l-.04.06c-.08,0-.19-.09-.32-.02-.13.08-.2.15-.29.19h0Z"/>
      <path class="st2" d="M36.66,22.82c.37-.11.44-.04.56-.04h.04l-.04.07c-.15,0-.23-.11-.56-.04h0Z"/>
      <path class="st2" d="M36.61,22.82c.41-.04.28.21.61.21h.04l-.04.06c-.41,0-.23-.22-.61-.26h0Z"/>
      <path class="st2" d="M36.89,23.42c0-.18.15-.33.34-.33s.33.15.33.33c-.04-.18-.23-.3-.41-.25-.13.03-.23.13-.25.25h0Z"/>
    </g>
  </g>
  <path class="st1" d="M71.44,3v37.42H3V3h68.44M74.44,0H0v43.42h74.44V0h0Z"/>
</svg>