<?xml version="1.0" encoding="UTF-8"?>
<svg id="Capa_1" xmlns="http://www.w3.org/2000/svg" version="1.1" xmlns:xlink="http://www.w3.org/1999/xlink" viewBox="0 0 74.44 43.42">
  <!-- Generator: Adobe Illustrator 30.6.0, SVG Export Plug-In . SVG Version: 2.1.4 Build 109)  -->
  <defs>
    <style>
      .st0 {
        fill: #231f20;
      }

      .st1 {
        fill: #2d146e;
      }

      .st2 {
        fill: #fff;
      }

      .st3 {
        fill-rule: evenodd;
      }

      .st3, .st4 {
        fill: #3c9242;
      }

      .st5 {
        fill: none;
      }

      .st6 {
        clip-path: url(#clippath-1);
      }

      .st7 {
        fill: #edc226;
      }

      .st8 {
        clip-path: url(#clippath);
      }
    </style>
    <clipPath id="clippath">
      <rect class="st5" x="0" y="0" width="74.44" height="43.42"/>
    </clipPath>
    <clipPath id="clippath-1">
      <rect class="st5" x="0" y="0" width="74.44" height="43.42"/>
    </clipPath>
  </defs>
  <g class="st8">
    <rect class="st4" x="0" y="0" width="74.44" height="43.42"/>
    <polygon class="st7" points="11.48 21.71 37.22 38.15 62.96 21.71 37.22 5.27 11.48 21.71"/>
    <g class="st6">
      <path class="st1" d="M48.08,21.71c0,5.99-4.86,10.86-10.86,10.86s-10.85-4.86-10.85-10.86,4.86-10.85,10.85-10.85,10.86,4.86,10.86,10.85"/>
      <path class="st2" d="M31.02,17.06c-1.27,0-2.51.09-3.73.26-.23.53-.43,1.09-.58,1.66,1.4-.24,2.84-.37,4.31-.37,6.37,0,12.17,2.4,16.57,6.34.17-.55.3-1.13.39-1.72-4.58-3.85-10.5-6.17-16.95-6.17"/>
      <path class="st3" d="M27.96,18.54c.26-.03.43-.29.4-.57-.04-.28-.27-.49-.52-.46-.25.03-.43.29-.4.57.04.28.27.49.52.46M27.94,18.35c.15-.02.25-.18.23-.35-.02-.18-.16-.31-.31-.29-.15.02-.25.18-.23.35.02.18.16.31.31.29"/>
      <path class="st3" d="M28.8,18.44h.19s-.02-.4-.02-.4l.41-.03c.18-.01.31-.17.3-.35-.01-.18-.17-.31-.35-.3l-.59.04.06,1.03ZM28.96,17.86l.4-.03c.07,0,.13-.07.12-.14,0-.07-.07-.13-.14-.12l-.4.03.02.27Z"/>
      <path class="st4" d="M29.68,18.38c0-.15-.03-.47-.25-.46l-.28.02c.32-.02.35.3.36.45"/>
      <path class="st3" d="M30.11,18.36h.49c.25-.01.44-.21.43-.46v-.15c0-.24-.21-.44-.45-.44h-.49s.02,1.04.02,1.04ZM30.3,18.17h.28c.16-.01.28-.14.27-.29v-.09c0-.15-.13-.28-.29-.27h-.28s.01.66.01.66Z"/>
      <polygon class="st4" points="31.43 18.35 32.36 18.38 32.36 18.19 31.61 18.16 31.62 17.9 32.21 17.92 32.22 17.74 31.63 17.72 31.63 17.51 32.34 17.54 32.35 17.35 31.46 17.32 31.43 18.35"/>
      <polygon class="st4" points="32.74 18.41 32.92 18.42 32.98 17.71 33.12 18.44 33.28 18.45 33.55 17.76 33.49 18.47 33.67 18.49 33.75 17.46 33.5 17.43 33.23 18.12 33.09 17.4 32.83 17.37 32.74 18.41"/>
      <polygon class="st4" points="34.88 18.65 35.64 18.78 35.68 18.6 35.08 18.5 35.12 18.27 35.61 18.35 35.64 18.18 35.16 18.09 35.18 17.93 35.75 18.03 35.78 17.86 35.04 17.73 34.88 18.65"/>
      <path class="st3" d="M36.84,19.03l.19.05.1-.37.4.1c.17.05.35-.06.4-.23.04-.17-.06-.35-.23-.4l-.57-.15-.27,1ZM37.17,18.52l.39.1c.07.02.14-.02.16-.1.02-.07-.02-.14-.1-.16l-.39-.1-.07.26Z"/>
      <path class="st3" d="M38.11,19.37l.18.06.12-.37.39.12c.17.05.35-.04.41-.21.05-.17-.04-.35-.21-.41l-.57-.18-.32.98ZM38.47,18.88l.38.12c.07.02.14-.02.17-.09.02-.07-.02-.15-.09-.17l-.38-.12-.08.25Z"/>
      <path class="st4" d="M38.95,19.63c.05-.14.14-.45-.07-.52l-.27-.08c.31.1.21.41.17.55"/>
      <path class="st3" d="M39.8,19.94c.24.09.52-.05.62-.32.1-.27-.01-.56-.26-.65-.24-.09-.52.05-.62.32-.1.27.01.56.25.65M39.86,19.76c.14.05.31-.04.37-.21.06-.17,0-.35-.14-.4-.14-.05-.31.04-.37.21-.06.17,0,.35.14.4"/>
      <path class="st3" d="M41.01,20.43c.23.1.52-.03.63-.29.11-.26.02-.56-.22-.66-.24-.1-.52.03-.63.29-.11.26-.02.56.22.66M41.09,20.25c.14.06.31-.02.38-.19.07-.16.02-.35-.12-.41-.14-.06-.31.02-.38.19-.07.16-.02.35.12.41"/>
      <polygon class="st4" points="41.29 19.98 41.65 20.14 41.59 20.28 41.23 20.12 41.29 19.98"/>
      <polygon class="st4" points="41.51 20.08 41.65 20.14 41.44 20.62 41.31 20.56 41.51 20.08"/>
      <path class="st3" d="M41.79,20.78l.17.09.17-.34.37.18c.16.08.36.02.44-.15.08-.16.02-.35-.15-.44l-.53-.26-.48.92ZM42.22,20.35l.36.18c.07.03.15,0,.18-.06.03-.07,0-.15-.06-.18l-.36-.18-.12.24Z"/>
      <path class="st4" d="M42.57,21.17c.07-.13.21-.42.01-.52l-.25-.13c.29.15.14.44.08.57"/>
      <polygon class="st4" points="42.96 21.37 43.77 21.83 43.86 21.66 43.21 21.29 43.34 21.06 43.85 21.35 43.94 21.2 43.42 20.91 43.53 20.73 44.14 21.07 44.24 20.91 43.47 20.47 42.96 21.37"/>
      <path class="st4" d="M44.47,21.88c-.06.09,0,.19.12.26.12.08.21.08.25.02.11-.18-.54-.44-.34-.75.17-.27.47-.06.58.01.11.07.29.26.15.47l-.19-.12c.06-.09,0-.18-.11-.24-.09-.06-.17-.09-.23,0-.1.14.54.42.35.73-.14.23-.4.13-.56.02-.14-.09-.36-.31-.22-.52l.2.12Z"/>
      <path class="st4" d="M45.58,22.61c-.06.09,0,.18.11.27.12.09.21.09.24.03.12-.17-.52-.46-.3-.76.19-.26.47-.03.58.04.11.08.28.27.13.48l-.18-.13c.06-.09,0-.18-.09-.25-.09-.07-.17-.1-.23-.01-.1.14.52.44.31.74-.16.22-.4.11-.56,0-.14-.1-.34-.32-.19-.54l.19.13Z"/>
      <path class="st3" d="M46.62,23.8c.2.16.51.11.69-.11.18-.22.16-.53-.04-.69-.2-.16-.51-.11-.69.11-.18.22-.16.53.04.69M46.74,23.65c.12.09.3.06.41-.08.11-.14.11-.33-.01-.42-.12-.09-.3-.06-.42.08-.11.14-.11.33.01.42"/>
      <polygon class="st2" points="28.36 19.3 28.21 19.74 28.43 19.81 28.36 19.3"/>
      <polygon class="st2" points="28.36 19.3 28.5 19.74 28.28 19.81 28.36 19.3"/>
      <polygon class="st2" points="28.8 19.62 28.33 19.62 28.33 19.85 28.8 19.62"/>
      <polygon class="st2" points="28.8 19.62 28.42 19.89 28.29 19.7 28.8 19.62"/>
      <polygon class="st2" points="27.92 19.62 28.29 19.89 28.43 19.7 27.92 19.62"/>
      <polygon class="st2" points="27.92 19.62 28.38 19.62 28.38 19.85 27.92 19.62"/>
      <polygon class="st2" points="28.63 20.14 28.49 19.69 28.27 19.77 28.63 20.14"/>
      <polygon class="st2" points="28.63 20.14 28.26 19.86 28.39 19.67 28.63 20.14"/>
      <polygon class="st2" points="28.09 20.14 28.46 19.86 28.32 19.67 28.09 20.14"/>
      <polygon class="st2" points="28.09 20.14 28.23 19.69 28.45 19.77 28.09 20.14"/>
      <polygon class="st2" points="29.32 23.86 29.17 24.3 29.4 24.37 29.32 23.86"/>
      <polygon class="st2" points="29.32 23.86 29.46 24.3 29.24 24.37 29.32 23.86"/>
      <polygon class="st2" points="29.76 24.18 29.3 24.18 29.3 24.41 29.76 24.18"/>
      <polygon class="st2" points="29.76 24.18 29.38 24.45 29.25 24.27 29.76 24.18"/>
      <polygon class="st2" points="28.87 24.18 29.25 24.45 29.39 24.27 28.87 24.18"/>
      <polygon class="st2" points="28.87 24.18 29.34 24.18 29.34 24.41 28.87 24.18"/>
      <polygon class="st2" points="29.59 24.7 29.45 24.26 29.23 24.33 29.59 24.7"/>
      <polygon class="st2" points="29.59 24.7 29.22 24.43 29.35 24.24 29.59 24.7"/>
      <polygon class="st2" points="29.05 24.7 29.42 24.43 29.28 24.24 29.05 24.7"/>
      <polygon class="st2" points="29.05 24.7 29.19 24.26 29.41 24.33 29.05 24.7"/>
      <polygon class="st2" points="27.99 24.99 27.89 25.28 28.04 25.33 27.99 24.99"/>
      <polygon class="st2" points="27.99 24.99 28.09 25.28 27.94 25.33 27.99 24.99"/>
      <polygon class="st2" points="28.28 25.2 27.97 25.2 27.97 25.36 28.28 25.2"/>
      <polygon class="st2" points="28.28 25.2 28.03 25.38 27.94 25.26 28.28 25.2"/>
      <polygon class="st2" points="27.69 25.2 27.94 25.38 28.03 25.26 27.69 25.2"/>
      <polygon class="st2" points="27.69 25.2 28 25.2 28 25.36 27.69 25.2"/>
      <polygon class="st2" points="28.17 25.55 28.08 25.26 27.93 25.3 28.17 25.55"/>
      <polygon class="st2" points="28.17 25.55 27.92 25.37 28.01 25.24 28.17 25.55"/>
      <polygon class="st2" points="27.81 25.55 28.06 25.37 27.97 25.24 27.81 25.55"/>
      <polygon class="st2" points="27.81 25.55 27.9 25.26 28.05 25.3 27.81 25.55"/>
      <polygon class="st2" points="30.38 23.44 30.31 23.65 30.42 23.68 30.38 23.44"/>
      <polygon class="st2" points="30.38 23.44 30.45 23.65 30.35 23.68 30.38 23.44"/>
      <polygon class="st2" points="30.59 23.59 30.37 23.59 30.37 23.7 30.59 23.59"/>
      <polygon class="st2" points="30.59 23.59 30.41 23.72 30.35 23.63 30.59 23.59"/>
      <polygon class="st2" points="30.17 23.59 30.35 23.72 30.42 23.63 30.17 23.59"/>
      <polygon class="st2" points="30.17 23.59 30.39 23.59 30.39 23.7 30.17 23.59"/>
      <polygon class="st2" points="30.51 23.84 30.44 23.63 30.34 23.66 30.51 23.84"/>
      <polygon class="st2" points="30.51 23.84 30.33 23.71 30.4 23.62 30.51 23.84"/>
      <polygon class="st2" points="30.25 23.84 30.43 23.71 30.37 23.62 30.25 23.84"/>
      <polygon class="st2" points="30.25 23.84 30.32 23.63 30.43 23.66 30.25 23.84"/>
      <polygon class="st2" points="31.58 25.01 31.46 25.38 31.64 25.44 31.58 25.01"/>
      <polygon class="st2" points="31.58 25.01 31.7 25.38 31.51 25.44 31.58 25.01"/>
      <polygon class="st2" points="31.95 25.28 31.56 25.28 31.56 25.48 31.95 25.28"/>
      <polygon class="st2" points="31.95 25.28 31.63 25.51 31.52 25.35 31.95 25.28"/>
      <polygon class="st2" points="31.21 25.28 31.52 25.51 31.64 25.35 31.21 25.28"/>
      <polygon class="st2" points="31.21 25.28 31.6 25.28 31.6 25.48 31.21 25.28"/>
      <polygon class="st2" points="31.81 25.72 31.69 25.35 31.5 25.41 31.81 25.72"/>
      <polygon class="st2" points="31.81 25.72 31.49 25.49 31.61 25.33 31.81 25.72"/>
      <polygon class="st2" points="31.35 25.72 31.66 25.49 31.55 25.33 31.35 25.72"/>
      <polygon class="st2" points="31.35 25.72 31.47 25.35 31.65 25.41 31.35 25.72"/>
      <polygon class="st2" points="31.25 26.09 31.13 26.46 31.32 26.52 31.25 26.09"/>
      <polygon class="st2" points="31.25 26.09 31.37 26.46 31.19 26.52 31.25 26.09"/>
      <polygon class="st2" points="31.62 26.36 31.23 26.36 31.23 26.55 31.62 26.36"/>
      <polygon class="st2" points="31.62 26.36 31.31 26.59 31.19 26.43 31.62 26.36"/>
      <polygon class="st2" points="30.88 26.36 31.2 26.59 31.31 26.43 30.88 26.36"/>
      <polygon class="st2" points="30.88 26.36 31.27 26.36 31.27 26.55 30.88 26.36"/>
      <polygon class="st2" points="31.48 26.8 31.36 26.42 31.18 26.48 31.48 26.8"/>
      <polygon class="st2" points="31.48 26.8 31.17 26.57 31.28 26.41 31.48 26.8"/>
      <polygon class="st2" points="31.02 26.8 31.34 26.57 31.22 26.41 31.02 26.8"/>
      <polygon class="st2" points="31.02 26.8 31.15 26.42 31.33 26.48 31.02 26.8"/>
      <polygon class="st2" points="40.59 17.88 40.44 18.32 40.66 18.39 40.59 17.88"/>
      <polygon class="st2" points="40.59 17.88 40.73 18.32 40.51 18.39 40.59 17.88"/>
      <polygon class="st2" points="41.03 18.2 40.57 18.2 40.57 18.43 41.03 18.2"/>
      <polygon class="st2" points="41.03 18.2 40.65 18.47 40.52 18.28 41.03 18.2"/>
      <polygon class="st2" points="40.14 18.2 40.52 18.47 40.66 18.28 40.14 18.2"/>
      <polygon class="st2" points="40.14 18.2 40.61 18.2 40.61 18.43 40.14 18.2"/>
      <polygon class="st2" points="40.86 18.72 40.72 18.28 40.49 18.35 40.86 18.72"/>
      <polygon class="st2" points="40.86 18.72 40.48 18.45 40.62 18.26 40.86 18.72"/>
      <polygon class="st2" points="40.31 18.72 40.69 18.45 40.55 18.26 40.31 18.72"/>
      <polygon class="st2" points="40.31 18.72 40.46 18.28 40.68 18.35 40.31 18.72"/>
      <polygon class="st2" points="44.83 25.06 44.68 25.5 44.9 25.57 44.83 25.06"/>
      <polygon class="st2" points="44.83 25.06 44.97 25.5 44.75 25.57 44.83 25.06"/>
      <polygon class="st2" points="45.27 25.38 44.8 25.38 44.8 25.61 45.27 25.38"/>
      <polygon class="st2" points="45.27 25.38 44.89 25.65 44.76 25.46 45.27 25.38"/>
      <polygon class="st2" points="44.38 25.38 44.76 25.65 44.9 25.46 44.38 25.38"/>
      <polygon class="st2" points="44.38 25.38 44.85 25.38 44.85 25.61 44.38 25.38"/>
      <polygon class="st2" points="45.1 25.9 44.96 25.45 44.74 25.52 45.1 25.9"/>
      <polygon class="st2" points="45.1 25.9 44.72 25.62 44.86 25.43 45.1 25.9"/>
      <polygon class="st2" points="44.55 25.9 44.93 25.62 44.79 25.43 44.55 25.9"/>
      <polygon class="st2" points="44.55 25.9 44.7 25.45 44.92 25.52 44.55 25.9"/>
      <polygon class="st2" points="46.33 25.31 46.24 25.61 46.38 25.66 46.33 25.31"/>
      <polygon class="st2" points="46.33 25.31 46.43 25.61 46.28 25.66 46.33 25.31"/>
      <polygon class="st2" points="46.63 25.53 46.32 25.53 46.32 25.68 46.63 25.53"/>
      <polygon class="st2" points="46.63 25.53 46.38 25.71 46.29 25.59 46.63 25.53"/>
      <polygon class="st2" points="46.04 25.53 46.29 25.71 46.38 25.59 46.04 25.53"/>
      <polygon class="st2" points="46.04 25.53 46.35 25.53 46.35 25.68 46.04 25.53"/>
      <polygon class="st2" points="46.52 25.87 46.42 25.58 46.27 25.63 46.52 25.87"/>
      <polygon class="st2" points="46.52 25.87 46.26 25.69 46.35 25.57 46.52 25.87"/>
      <polygon class="st2" points="46.15 25.87 46.4 25.69 46.31 25.57 46.15 25.87"/>
      <polygon class="st2" points="46.15 25.87 46.25 25.58 46.39 25.63 46.15 25.87"/>
      <polygon class="st2" points="45.27 26.09 45.15 26.46 45.33 26.52 45.27 26.09"/>
      <polygon class="st2" points="45.27 26.09 45.39 26.46 45.21 26.52 45.27 26.09"/>
      <polygon class="st2" points="45.64 26.36 45.25 26.36 45.25 26.55 45.64 26.36"/>
      <polygon class="st2" points="45.64 26.36 45.32 26.59 45.21 26.43 45.64 26.36"/>
      <polygon class="st2" points="44.9 26.36 45.21 26.59 45.33 26.43 44.9 26.36"/>
      <polygon class="st2" points="44.9 26.36 45.29 26.36 45.29 26.55 44.9 26.36"/>
      <polygon class="st2" points="45.5 26.8 45.38 26.42 45.19 26.48 45.5 26.8"/>
      <polygon class="st2" points="45.5 26.8 45.18 26.57 45.3 26.41 45.5 26.8"/>
      <polygon class="st2" points="45.04 26.8 45.35 26.57 45.24 26.41 45.04 26.8"/>
      <polygon class="st2" points="45.04 26.8 45.16 26.42 45.35 26.48 45.04 26.8"/>
      <polygon class="st2" points="42.66 28.37 42.54 28.74 42.72 28.8 42.66 28.37"/>
      <polygon class="st2" points="42.66 28.37 42.78 28.74 42.59 28.8 42.66 28.37"/>
      <polygon class="st2" points="43.02 28.64 42.64 28.64 42.64 28.83 43.02 28.64"/>
      <polygon class="st2" points="43.02 28.64 42.71 28.86 42.6 28.71 43.02 28.64"/>
      <polygon class="st2" points="42.29 28.64 42.6 28.86 42.71 28.71 42.29 28.64"/>
      <polygon class="st2" points="42.29 28.64 42.67 28.64 42.67 28.83 42.29 28.64"/>
      <polygon class="st2" points="42.88 29.07 42.76 28.7 42.58 28.76 42.88 29.07"/>
      <polygon class="st2" points="42.88 29.07 42.57 28.84 42.68 28.68 42.88 29.07"/>
      <polygon class="st2" points="42.43 29.07 42.74 28.84 42.63 28.68 42.43 29.07"/>
      <polygon class="st2" points="42.43 29.07 42.55 28.7 42.73 28.76 42.43 29.07"/>
      <polygon class="st2" points="42.64 29.54 42.55 29.83 42.69 29.88 42.64 29.54"/>
      <polygon class="st2" points="42.64 29.54 42.74 29.83 42.59 29.88 42.64 29.54"/>
      <polygon class="st2" points="42.94 29.75 42.63 29.75 42.63 29.91 42.94 29.75"/>
      <polygon class="st2" points="42.94 29.75 42.68 29.93 42.59 29.81 42.94 29.75"/>
      <polygon class="st2" points="42.35 29.75 42.6 29.93 42.69 29.81 42.35 29.75"/>
      <polygon class="st2" points="42.35 29.75 42.66 29.75 42.66 29.91 42.35 29.75"/>
      <polygon class="st2" points="42.82 30.1 42.73 29.81 42.58 29.85 42.82 30.1"/>
      <polygon class="st2" points="42.82 30.1 42.57 29.92 42.66 29.79 42.82 30.1"/>
      <polygon class="st2" points="42.46 30.1 42.71 29.92 42.62 29.79 42.46 30.1"/>
      <polygon class="st2" points="42.46 30.1 42.55 29.81 42.7 29.85 42.46 30.1"/>
      <polygon class="st2" points="43.73 27.59 43.64 27.88 43.78 27.93 43.73 27.59"/>
      <polygon class="st2" points="43.73 27.59 43.83 27.88 43.68 27.93 43.73 27.59"/>
      <polygon class="st2" points="44.03 27.8 43.72 27.8 43.72 27.96 44.03 27.8"/>
      <polygon class="st2" points="44.03 27.8 43.78 27.99 43.69 27.86 44.03 27.8"/>
      <polygon class="st2" points="43.44 27.8 43.69 27.99 43.78 27.86 43.44 27.8"/>
      <polygon class="st2" points="43.44 27.8 43.75 27.8 43.75 27.96 43.44 27.8"/>
      <polygon class="st2" points="43.92 28.15 43.82 27.85 43.67 27.9 43.92 28.15"/>
      <polygon class="st2" points="43.92 28.15 43.66 27.97 43.76 27.84 43.92 28.15"/>
      <polygon class="st2" points="43.55 28.15 43.8 27.97 43.71 27.84 43.55 28.15"/>
      <polygon class="st2" points="43.55 28.15 43.65 27.85 43.79 27.9 43.55 28.15"/>
      <polygon class="st2" points="44.6 26.96 44.49 27.33 44.67 27.39 44.6 26.96"/>
      <polygon class="st2" points="44.6 26.96 44.72 27.33 44.54 27.39 44.6 26.96"/>
      <polygon class="st2" points="44.97 27.23 44.58 27.23 44.58 27.43 44.97 27.23"/>
      <polygon class="st2" points="44.97 27.23 44.66 27.46 44.55 27.3 44.97 27.23"/>
      <polygon class="st2" points="44.24 27.23 44.55 27.46 44.66 27.3 44.24 27.23"/>
      <polygon class="st2" points="44.24 27.23 44.62 27.23 44.62 27.43 44.24 27.23"/>
      <polygon class="st2" points="44.83 27.66 44.71 27.3 44.53 27.36 44.83 27.66"/>
      <polygon class="st2" points="44.83 27.66 44.52 27.44 44.63 27.28 44.83 27.66"/>
      <polygon class="st2" points="44.38 27.66 44.69 27.44 44.58 27.28 44.38 27.66"/>
      <polygon class="st2" points="44.38 27.66 44.5 27.3 44.68 27.36 44.38 27.66"/>
      <polygon class="st2" points="42.61 27.38 42.52 27.68 42.66 27.73 42.61 27.38"/>
      <polygon class="st2" points="42.61 27.38 42.71 27.68 42.56 27.73 42.61 27.38"/>
      <polygon class="st2" points="42.91 27.6 42.6 27.6 42.6 27.75 42.91 27.6"/>
      <polygon class="st2" points="42.91 27.6 42.66 27.78 42.56 27.65 42.91 27.6"/>
      <polygon class="st2" points="42.32 27.6 42.57 27.78 42.66 27.65 42.32 27.6"/>
      <polygon class="st2" points="42.32 27.6 42.63 27.6 42.63 27.75 42.32 27.6"/>
      <polygon class="st2" points="42.79 27.94 42.7 27.65 42.55 27.69 42.79 27.94"/>
      <polygon class="st2" points="42.79 27.94 42.54 27.76 42.63 27.64 42.79 27.94"/>
      <polygon class="st2" points="42.43 27.94 42.68 27.76 42.59 27.64 42.43 27.94"/>
      <polygon class="st2" points="42.43 27.94 42.52 27.65 42.67 27.69 42.43 27.94"/>
      <polygon class="st2" points="33.08 21.77 32.96 22.13 33.15 22.19 33.08 21.77"/>
      <polygon class="st2" points="33.08 21.77 33.2 22.13 33.02 22.19 33.08 21.77"/>
      <polygon class="st2" points="33.45 22.03 33.07 22.03 33.07 22.23 33.45 22.03"/>
      <polygon class="st2" points="33.45 22.03 33.14 22.26 33.03 22.1 33.45 22.03"/>
      <polygon class="st2" points="32.72 22.03 33.03 22.26 33.14 22.1 32.72 22.03"/>
      <polygon class="st2" points="32.72 22.03 33.1 22.03 33.1 22.23 32.72 22.03"/>
      <polygon class="st2" points="33.31 22.47 33.19 22.1 33.01 22.16 33.31 22.47"/>
      <polygon class="st2" points="33.31 22.47 33 22.24 33.11 22.08 33.31 22.47"/>
      <polygon class="st2" points="32.86 22.47 33.17 22.24 33.06 22.08 32.86 22.47"/>
      <polygon class="st2" points="32.86 22.47 32.98 22.1 33.16 22.16 32.86 22.47"/>
      <polygon class="st2" points="40.17 20.85 40.08 21.15 40.23 21.2 40.17 20.85"/>
      <polygon class="st2" points="40.17 20.85 40.27 21.15 40.12 21.2 40.17 20.85"/>
      <polygon class="st2" points="40.47 21.07 40.16 21.07 40.16 21.22 40.47 21.07"/>
      <polygon class="st2" points="40.47 21.07 40.22 21.25 40.13 21.13 40.47 21.07"/>
      <polygon class="st2" points="39.88 21.07 40.13 21.25 40.22 21.13 39.88 21.07"/>
      <polygon class="st2" points="39.88 21.07 40.19 21.07 40.19 21.22 39.88 21.07"/>
      <polygon class="st2" points="40.36 21.42 40.26 21.12 40.11 21.17 40.36 21.42"/>
      <polygon class="st2" points="40.36 21.42 40.11 21.23 40.2 21.11 40.36 21.42"/>
      <polygon class="st2" points="39.99 21.42 40.24 21.23 40.15 21.11 39.99 21.42"/>
      <polygon class="st2" points="39.99 21.42 40.09 21.12 40.23 21.17 39.99 21.42"/>
      <polygon class="st2" points="37.22 26.12 37.08 26.56 37.3 26.63 37.22 26.12"/>
      <polygon class="st2" points="37.22 26.12 37.36 26.56 37.14 26.63 37.22 26.12"/>
      <polygon class="st2" points="37.66 26.44 37.2 26.44 37.2 26.67 37.66 26.44"/>
      <polygon class="st2" points="37.66 26.44 37.29 26.71 37.15 26.52 37.66 26.44"/>
      <polygon class="st2" points="36.78 26.44 37.15 26.71 37.29 26.52 36.78 26.44"/>
      <polygon class="st2" points="36.78 26.44 37.24 26.44 37.24 26.67 36.78 26.44"/>
      <polygon class="st2" points="37.49 26.96 37.35 26.52 37.13 26.59 37.49 26.96"/>
      <polygon class="st2" points="37.49 26.96 37.12 26.69 37.25 26.5 37.49 26.96"/>
      <polygon class="st2" points="36.95 26.96 37.32 26.69 37.19 26.5 36.95 26.96"/>
      <polygon class="st2" points="36.95 26.96 37.09 26.52 37.31 26.59 36.95 26.96"/>
      <polygon class="st2" points="38.48 24.04 38.36 24.41 38.54 24.47 38.48 24.04"/>
      <polygon class="st2" points="38.48 24.04 38.6 24.41 38.41 24.47 38.48 24.04"/>
      <polygon class="st2" points="38.84 24.31 38.46 24.31 38.46 24.5 38.84 24.31"/>
      <polygon class="st2" points="38.84 24.31 38.53 24.54 38.42 24.38 38.84 24.31"/>
      <polygon class="st2" points="38.11 24.31 38.42 24.54 38.53 24.38 38.11 24.31"/>
      <polygon class="st2" points="38.11 24.31 38.49 24.31 38.49 24.5 38.11 24.31"/>
      <polygon class="st2" points="38.7 24.74 38.58 24.37 38.4 24.43 38.7 24.74"/>
      <polygon class="st2" points="38.7 24.74 38.39 24.51 38.5 24.36 38.7 24.74"/>
      <polygon class="st2" points="38.25 24.74 38.56 24.51 38.45 24.36 38.25 24.74"/>
      <polygon class="st2" points="38.25 24.74 38.37 24.37 38.55 24.43 38.25 24.74"/>
      <polygon class="st2" points="37.22 23.07 37.1 23.43 37.28 23.49 37.22 23.07"/>
      <polygon class="st2" points="37.22 23.07 37.34 23.43 37.16 23.49 37.22 23.07"/>
      <polygon class="st2" points="37.59 23.33 37.2 23.33 37.2 23.53 37.59 23.33"/>
      <polygon class="st2" points="37.59 23.33 37.27 23.56 37.16 23.4 37.59 23.33"/>
      <polygon class="st2" points="36.85 23.33 37.17 23.56 37.28 23.4 36.85 23.33"/>
      <polygon class="st2" points="36.85 23.33 37.24 23.33 37.24 23.53 36.85 23.33"/>
      <polygon class="st2" points="37.45 23.77 37.33 23.4 37.14 23.46 37.45 23.77"/>
      <polygon class="st2" points="37.45 23.77 37.13 23.54 37.25 23.38 37.45 23.77"/>
      <polygon class="st2" points="36.99 23.77 37.31 23.54 37.19 23.38 36.99 23.77"/>
      <polygon class="st2" points="36.99 23.77 37.11 23.4 37.3 23.46 36.99 23.77"/>
      <polygon class="st2" points="36.13 24.12 36.03 24.41 36.18 24.46 36.13 24.12"/>
      <polygon class="st2" points="36.13 24.12 36.22 24.41 36.07 24.46 36.13 24.12"/>
      <polygon class="st2" points="36.42 24.33 36.11 24.33 36.11 24.49 36.42 24.33"/>
      <polygon class="st2" points="36.42 24.33 36.17 24.51 36.08 24.39 36.42 24.33"/>
      <polygon class="st2" points="35.83 24.33 36.08 24.51 36.17 24.39 35.83 24.33"/>
      <polygon class="st2" points="35.83 24.33 36.14 24.33 36.14 24.49 35.83 24.33"/>
      <polygon class="st2" points="36.31 24.68 36.21 24.38 36.07 24.43 36.31 24.68"/>
      <polygon class="st2" points="36.31 24.68 36.06 24.5 36.15 24.37 36.31 24.68"/>
      <polygon class="st2" points="35.94 24.68 36.2 24.5 36.11 24.37 35.94 24.68"/>
      <polygon class="st2" points="35.94 24.68 36.04 24.38 36.19 24.43 35.94 24.68"/>
      <polygon class="st2" points="36.67 24.96 36.6 25.17 36.71 25.2 36.67 24.96"/>
      <polygon class="st2" points="36.67 24.96 36.74 25.17 36.64 25.2 36.67 24.96"/>
      <polygon class="st2" points="36.88 25.11 36.66 25.11 36.66 25.22 36.88 25.11"/>
      <polygon class="st2" points="36.88 25.11 36.7 25.24 36.64 25.15 36.88 25.11"/>
      <polygon class="st2" points="36.46 25.11 36.64 25.24 36.71 25.15 36.46 25.11"/>
      <polygon class="st2" points="36.46 25.11 36.68 25.11 36.68 25.22 36.46 25.11"/>
      <polygon class="st2" points="36.8 25.36 36.73 25.15 36.63 25.18 36.8 25.36"/>
      <polygon class="st2" points="36.8 25.36 36.62 25.23 36.69 25.14 36.8 25.36"/>
      <polygon class="st2" points="36.54 25.36 36.72 25.23 36.66 25.14 36.54 25.36"/>
      <polygon class="st2" points="36.54 25.36 36.61 25.15 36.72 25.18 36.54 25.36"/>
      <polygon class="st2" points="40.47 28.63 40.35 29 40.53 29.06 40.47 28.63"/>
      <polygon class="st2" points="40.47 28.63 40.59 29 40.4 29.06 40.47 28.63"/>
      <polygon class="st2" points="40.84 28.9 40.45 28.9 40.45 29.1 40.84 28.9"/>
      <polygon class="st2" points="40.84 28.9 40.52 29.13 40.41 28.97 40.84 28.9"/>
      <polygon class="st2" points="40.1 28.9 40.41 29.13 40.53 28.97 40.1 28.9"/>
      <polygon class="st2" points="40.1 28.9 40.49 28.9 40.49 29.1 40.1 28.9"/>
      <polygon class="st2" points="40.7 29.33 40.58 28.97 40.39 29.03 40.7 29.33"/>
      <polygon class="st2" points="40.7 29.33 40.38 29.11 40.5 28.95 40.7 29.33"/>
      <polygon class="st2" points="40.24 29.33 40.56 29.11 40.44 28.95 40.24 29.33"/>
      <polygon class="st2" points="40.24 29.33 40.36 28.97 40.54 29.03 40.24 29.33"/>
      <polygon class="st2" points="41.4 27.75 41.3 28.04 41.45 28.09 41.4 27.75"/>
      <polygon class="st2" points="41.4 27.75 41.5 28.04 41.35 28.09 41.4 27.75"/>
      <polygon class="st2" points="41.7 27.97 41.38 27.97 41.38 28.12 41.7 27.97"/>
      <polygon class="st2" points="41.7 27.97 41.44 28.15 41.35 28.02 41.7 27.97"/>
      <polygon class="st2" points="41.1 27.97 41.36 28.15 41.45 28.02 41.1 27.97"/>
      <polygon class="st2" points="41.1 27.97 41.42 27.97 41.42 28.12 41.1 27.97"/>
      <polygon class="st2" points="41.58 28.31 41.49 28.02 41.34 28.06 41.58 28.31"/>
      <polygon class="st2" points="41.58 28.31 41.33 28.13 41.42 28 41.58 28.31"/>
      <polygon class="st2" points="41.22 28.31 41.47 28.13 41.38 28 41.22 28.31"/>
      <polygon class="st2" points="41.22 28.31 41.31 28.02 41.46 28.06 41.22 28.31"/>
      <polygon class="st2" points="39.61 27.49 39.52 27.78 39.66 27.83 39.61 27.49"/>
      <polygon class="st2" points="39.61 27.49 39.71 27.78 39.56 27.83 39.61 27.49"/>
      <polygon class="st2" points="39.91 27.7 39.6 27.7 39.6 27.85 39.91 27.7"/>
      <polygon class="st2" points="39.91 27.7 39.66 27.88 39.57 27.75 39.91 27.7"/>
      <polygon class="st2" points="39.32 27.7 39.57 27.88 39.66 27.75 39.32 27.7"/>
      <polygon class="st2" points="39.32 27.7 39.63 27.7 39.63 27.85 39.32 27.7"/>
      <polygon class="st2" points="39.8 28.05 39.7 27.75 39.55 27.8 39.8 28.05"/>
      <polygon class="st2" points="39.8 28.05 39.54 27.86 39.64 27.74 39.8 28.05"/>
      <polygon class="st2" points="39.43 28.05 39.68 27.86 39.59 27.74 39.43 28.05"/>
      <polygon class="st2" points="39.43 28.05 39.53 27.75 39.67 27.8 39.43 28.05"/>
      <polygon class="st2" points="32.86 27 32.72 27.45 32.94 27.52 32.86 27"/>
      <polygon class="st2" points="32.86 27 33.01 27.45 32.79 27.52 32.86 27"/>
      <polygon class="st2" points="33.31 27.33 32.84 27.33 32.84 27.56 33.31 27.33"/>
      <polygon class="st2" points="33.31 27.33 32.93 27.6 32.79 27.41 33.31 27.33"/>
      <polygon class="st2" points="32.42 27.33 32.8 27.6 32.93 27.41 32.42 27.33"/>
      <polygon class="st2" points="32.42 27.33 32.89 27.33 32.89 27.56 32.42 27.33"/>
      <polygon class="st2" points="33.14 27.85 32.99 27.4 32.77 27.48 33.14 27.85"/>
      <polygon class="st2" points="33.14 27.85 32.76 27.57 32.9 27.38 33.14 27.85"/>
      <polygon class="st2" points="32.59 27.85 32.97 27.57 32.83 27.38 32.59 27.85"/>
      <polygon class="st2" points="32.59 27.85 32.73 27.4 32.95 27.48 32.59 27.85"/>
      <polygon class="st2" points="37.22 30.05 37.17 30.19 37.25 30.22 37.22 30.05"/>
      <polygon class="st2" points="37.22 30.05 37.27 30.19 37.19 30.22 37.22 30.05"/>
      <polygon class="st2" points="37.37 30.15 37.21 30.15 37.21 30.23 37.37 30.15"/>
      <polygon class="st2" points="37.37 30.15 37.24 30.25 37.2 30.18 37.37 30.15"/>
      <polygon class="st2" points="37.07 30.15 37.2 30.25 37.24 30.18 37.07 30.15"/>
      <polygon class="st2" points="37.07 30.15 37.23 30.15 37.23 30.23 37.07 30.15"/>
      <polygon class="st2" points="37.31 30.33 37.26 30.18 37.19 30.21 37.31 30.33"/>
      <polygon class="st2" points="37.31 30.33 37.19 30.24 37.23 30.17 37.31 30.33"/>
      <polygon class="st2" points="37.13 30.33 37.25 30.24 37.21 30.17 37.13 30.33"/>
      <polygon class="st2" points="37.13 30.33 37.18 30.18 37.25 30.21 37.13 30.33"/>
    </g>
  </g>
  <path class="st0" d="M71.44,3v37.42H3V3h68.44M74.44,0H0v43.42h74.44V0h0Z"/>
</svg>